<svg xmlns="http://www.w3.org/2000/svg" width="1200" height="750" viewBox="0 0 1200 750">
  <defs>
    <linearGradient id="bg" x1="0" y1="0" x2="1" y2="1">
      <stop offset="0" stop-color="#0A0E27"/>
      <stop offset="1" stop-color="#151932"/>
    </linearGradient>
    <radialGradient id="glow" cx="50%" cy="35%" r="70%">
      <stop offset="0" stop-color="rgba(244,42,65,0.35)"/>
      <stop offset="1" stop-color="rgba(244,42,65,0)"/>
    </radialGradient>
  </defs>
  <rect width="1200" height="750" fill="url(#bg)"/>
  <rect width="1200" height="750" fill="url(#glow)"/>
  <circle cx="220" cy="170" r="6" fill="rgba(244,42,65,0.55)"/>
  <circle cx="420" cy="260" r="4" fill="rgba(244,42,65,0.4)"/>
  <circle cx="860" cy="210" r="5" fill="rgba(244,42,65,0.45)"/>
  <circle cx="980" cy="520" r="4" fill="rgba(244,42,65,0.35)"/>
  <circle cx="320" cy="560" r="5" fill="rgba(244,42,65,0.4)"/>
  <!-- subtle label pill -->
  <rect x="60" y="60" width="220" height="44" rx="22" fill="rgba(244,42,65,0.16)" stroke="rgba(244,42,65,0.35)" />
  <text x="82" y="90" fill="#F8FAFC" font-family="Inter, system-ui, -apple-system" font-size="16" font-weight="700">PROTESTS</text>
  
  <!-- abstract shapes -->
  <path d="M140 520 C 260 420, 380 610, 520 500 C 640 410, 760 610, 910 520" fill="none" stroke="rgba(244,42,65,0.30)" stroke-width="10" stroke-linecap="round"/>
  <path d="M180 570 C 320 470, 420 640, 560 540 C 690 450, 820 650, 980 560" fill="none" stroke="rgba(244,42,65,0.18)" stroke-width="12" stroke-linecap="round"/>
  
  <!-- tiny caption (optional) -->
  <text x="60" y="690" fill="#64748B" font-family="Inter, system-ui, -apple-system" font-size="14">Placeholder artwork</text>
</svg>
